<?xml version="1.0" encoding="UTF-8" standalone="no"?>
<!DOCTYPE svg PUBLIC "-//W3C//DTD SVG 1.1//EN" "http://www.w3.org/Graphics/SVG/1.1/DTD/svg11.dtd">
<svg xmlns="http://www.w3.org/2000/svg" xmlns:xlink="http://www.w3.org/1999/xlink" version="1.1" width="1240.7638pt" height="932.4915pt" viewBox="0 0 1240.7638 932.4915">
<g enable-background="new">
<g>
<path transform="matrix(2.7777777,0,0,2.7777777,-280.55,-70.18619)" d="M 0 0 L 1123 0 L 1123 749 L 0 749 Z " fill="#ffffff"/>
<path transform="matrix(2.7777777,0,0,2.7777777,-280.55,-70.18619)" d="M 145.988 56.176 L 521.57 56.176 L 521.57 311.461 L 145.988 311.461 Z " fill="#ffffff"/>
<path transform="matrix(2.7765415,0,0,2.7777777,-280.55,-70.18619)" stroke-width=".624167" stroke-linecap="butt" stroke-linejoin="round" fill="none" stroke="#262626" stroke-opacity=".149" d="M 146.053 311.461 L 146.053 56.176 "/>
<path transform="matrix(2.7765415,0,0,2.7777777,-280.55,-70.18619)" stroke-width=".624167" stroke-linecap="butt" stroke-linejoin="round" fill="none" stroke="#262626" stroke-opacity=".149" d="M 221.204 311.461 L 221.204 56.176 "/>
<path transform="matrix(2.7765415,0,0,2.7777777,-280.55,-70.18619)" stroke-width=".624167" stroke-linecap="butt" stroke-linejoin="round" fill="none" stroke="#262626" stroke-opacity=".149" d="M 296.355 311.461 L 296.355 56.176 "/>
<path transform="matrix(2.7765415,0,0,2.7777777,-280.55,-70.18619)" stroke-width=".624167" stroke-linecap="butt" stroke-linejoin="round" fill="none" stroke="#262626" stroke-opacity=".149" d="M 371.505 311.461 L 371.505 56.176 "/>
<path transform="matrix(2.7765415,0,0,2.7777777,-280.55,-70.18619)" stroke-width=".624167" stroke-linecap="butt" stroke-linejoin="round" fill="none" stroke="#262626" stroke-opacity=".149" d="M 446.652 311.461 L 446.652 56.176 "/>
<path transform="matrix(2.7765415,0,0,2.7777777,-280.55,-70.18619)" stroke-width=".624167" stroke-linecap="butt" stroke-linejoin="round" fill="none" stroke="#262626" stroke-opacity=".149" d="M 521.803 311.461 L 521.803 56.176 "/>
<path transform="matrix(2.7765415,0,0,2.7777777,-280.55,-70.18619)" stroke-width=".624167" stroke-linecap="butt" stroke-linejoin="round" fill="none" stroke="#262626" stroke-opacity=".149" d="M 521.803 308.965 L 146.053 308.965 "/>
<path transform="matrix(2.7765415,0,0,2.7777777,-280.55,-70.18619)" stroke-width=".624167" stroke-linecap="butt" stroke-linejoin="round" fill="none" stroke="#262626" stroke-opacity=".149" d="M 521.803 257.906 L 146.053 257.906 "/>
<path transform="matrix(2.7765415,0,0,2.7777777,-280.55,-70.18619)" stroke-width=".624167" stroke-linecap="butt" stroke-linejoin="round" fill="none" stroke="#262626" stroke-opacity=".149" d="M 521.803 206.852 L 146.053 206.852 "/>
<path transform="matrix(2.7765415,0,0,2.7777777,-280.55,-70.18619)" stroke-width=".624167" stroke-linecap="butt" stroke-linejoin="round" fill="none" stroke="#262626" stroke-opacity=".149" d="M 521.803 155.793 L 146.053 155.793 "/>
<path transform="matrix(2.7765415,0,0,2.7777777,-280.55,-70.18619)" stroke-width=".624167" stroke-linecap="butt" stroke-linejoin="round" fill="none" stroke="#262626" stroke-opacity=".149" d="M 521.803 104.738 L 146.053 104.738 "/>
<path transform="matrix(2.7765415,0,0,2.7777777,-280.55,-70.18619)" stroke-width=".624167" stroke-linecap="square" stroke-linejoin="round" fill="none" stroke="#262626" d="M 146.053 311.461 L 521.803 311.461 "/>
<path transform="matrix(2.7765415,0,0,2.7777777,-280.55,-70.18619)" stroke-width=".624167" stroke-linecap="square" stroke-linejoin="round" fill="none" stroke="#262626" d="M 146.053 56.176 L 521.803 56.176 "/>
<path transform="matrix(2.7765415,0,0,2.7777777,-280.55,-70.18619)" stroke-width=".624167" stroke-linecap="square" stroke-linejoin="round" fill="none" stroke="#262626" d="M 146.053 311.461 L 146.053 307.703 "/>
<path transform="matrix(2.7765415,0,0,2.7777777,-280.55,-70.18619)" stroke-width=".624167" stroke-linecap="square" stroke-linejoin="round" fill="none" stroke="#262626" d="M 221.204 311.461 L 221.204 307.703 "/>
<path transform="matrix(2.7765415,0,0,2.7777777,-280.55,-70.18619)" stroke-width=".624167" stroke-linecap="square" stroke-linejoin="round" fill="none" stroke="#262626" d="M 296.355 311.461 L 296.355 307.703 "/>
<path transform="matrix(2.7765415,0,0,2.7777777,-280.55,-70.18619)" stroke-width=".624167" stroke-linecap="square" stroke-linejoin="round" fill="none" stroke="#262626" d="M 371.505 311.461 L 371.505 307.703 "/>
<path transform="matrix(2.7765415,0,0,2.7777777,-280.55,-70.18619)" stroke-width=".624167" stroke-linecap="square" stroke-linejoin="round" fill="none" stroke="#262626" d="M 446.652 311.461 L 446.652 307.703 "/>
<path transform="matrix(2.7765415,0,0,2.7777777,-280.55,-70.18619)" stroke-width=".624167" stroke-linecap="square" stroke-linejoin="round" fill="none" stroke="#262626" d="M 521.803 311.461 L 521.803 307.703 "/>
<path transform="matrix(2.7765415,0,0,2.7777777,-280.55,-70.18619)" stroke-width=".624167" stroke-linecap="square" stroke-linejoin="round" fill="none" stroke="#262626" d="M 146.053 56.176 L 146.053 59.934 "/>
<path transform="matrix(2.7765415,0,0,2.7777777,-280.55,-70.18619)" stroke-width=".624167" stroke-linecap="square" stroke-linejoin="round" fill="none" stroke="#262626" d="M 221.204 56.176 L 221.204 59.934 "/>
<path transform="matrix(2.7765415,0,0,2.7777777,-280.55,-70.18619)" stroke-width=".624167" stroke-linecap="square" stroke-linejoin="round" fill="none" stroke="#262626" d="M 296.355 56.176 L 296.355 59.934 "/>
<path transform="matrix(2.7765415,0,0,2.7777777,-280.55,-70.18619)" stroke-width=".624167" stroke-linecap="square" stroke-linejoin="round" fill="none" stroke="#262626" d="M 371.505 56.176 L 371.505 59.934 "/>
<path transform="matrix(2.7765415,0,0,2.7777777,-280.55,-70.18619)" stroke-width=".624167" stroke-linecap="square" stroke-linejoin="round" fill="none" stroke="#262626" d="M 446.652 56.176 L 446.652 59.934 "/>
<path transform="matrix(2.7765415,0,0,2.7777777,-280.55,-70.18619)" stroke-width=".624167" stroke-linecap="square" stroke-linejoin="round" fill="none" stroke="#262626" d="M 521.803 56.176 L 521.803 59.934 "/>
<path transform="matrix(2.7777777,0,0,2.7777777,-280.55,-70.18619)" d="M 142.762 325.152 C 142.762 324.098 142.871 323.25 143.09 322.602 C 143.309 321.953 143.633 321.457 144.059 321.109 C 144.488 320.762 145.027 320.586 145.68 320.586 C 146.16 320.586 146.578 320.684 146.941 320.875 C 147.301 321.066 147.598 321.344 147.832 321.711 C 148.066 322.074 148.25 322.516 148.387 323.039 C 148.523 323.562 148.594 324.27 148.594 325.152 C 148.594 326.199 148.484 327.043 148.266 327.688 C 148.047 328.332 147.727 328.832 147.301 329.184 C 146.875 329.539 146.336 329.715 145.68 329.715 C 144.812 329.715 144.137 329.406 143.652 328.789 C 143.059 328.043 142.762 326.828 142.762 325.152 Z M 143.895 325.152 C 143.895 326.621 144.066 327.598 144.406 328.082 C 144.746 328.566 145.172 328.809 145.68 328.809 C 146.18 328.809 146.602 328.566 146.945 328.078 C 147.289 327.59 147.461 326.613 147.461 325.152 C 147.461 323.684 147.289 322.707 146.945 322.223 C 146.602 321.738 146.176 321.496 145.668 321.496 C 145.16 321.496 144.758 321.711 144.461 322.137 C 144.082 322.68 143.895 323.684 143.895 325.152 Z M 143.895 325.152 " fill="#262626"/>
<path transform="matrix(2.7777777,0,0,2.7777777,-280.55,-70.18619)" d="M 218.582 329.559 L 217.48 329.559 L 217.48 322.566 C 217.219 322.82 216.875 323.074 216.445 323.324 C 216.02 323.574 215.633 323.766 215.285 323.895 L 215.285 322.832 C 215.902 322.543 216.441 322.195 216.898 321.781 C 217.359 321.371 217.68 320.973 217.871 320.586 L 218.582 320.586 Z M 221.387 325.152 C 221.387 324.098 221.496 323.25 221.715 322.602 C 221.934 321.953 222.254 321.457 222.684 321.109 C 223.113 320.762 223.652 320.586 224.301 320.586 C 224.785 320.586 225.203 320.684 225.566 320.875 C 225.926 321.066 226.223 321.344 226.457 321.711 C 226.691 322.074 226.875 322.516 227.012 323.039 C 227.148 323.562 227.219 324.27 227.219 325.152 C 227.219 326.199 227.109 327.043 226.891 327.688 C 226.672 328.332 226.352 328.832 225.926 329.184 C 225.5 329.539 224.957 329.715 224.301 329.715 C 223.438 329.715 222.762 329.406 222.273 328.789 C 221.684 328.043 221.387 326.828 221.387 325.152 Z M 222.52 325.152 C 222.52 326.621 222.688 327.598 223.031 328.082 C 223.371 328.566 223.797 328.809 224.301 328.809 C 224.805 328.809 225.227 328.566 225.57 328.078 C 225.914 327.59 226.086 326.613 226.086 325.152 C 226.086 323.684 225.914 322.707 225.57 322.223 C 225.227 321.738 224.801 321.496 224.293 321.496 C 223.785 321.496 223.383 321.711 223.082 322.137 C 222.707 322.68 222.52 323.684 222.52 325.152 Z M 222.52 325.152 " fill="#262626"/>
<path transform="matrix(2.7777777,0,0,2.7777777,-280.55,-70.18619)" d="M 295.324 328.508 L 295.324 329.559 L 289.43 329.559 C 289.422 329.293 289.465 329.039 289.555 328.801 C 289.703 328.395 289.945 328 290.277 327.609 C 290.609 327.219 291.086 326.766 291.707 326.254 C 292.684 325.461 293.344 324.832 293.684 324.367 C 294.023 323.902 294.195 323.461 294.195 323.047 C 294.195 322.609 294.039 322.242 293.727 321.941 C 293.414 321.645 293.008 321.496 292.508 321.496 C 291.98 321.496 291.559 321.652 291.242 321.973 C 290.922 322.293 290.762 322.73 290.762 323.289 L 289.633 323.172 C 289.711 322.332 290 321.691 290.504 321.25 C 291.008 320.809 291.688 320.586 292.539 320.586 C 293.391 320.586 294.066 320.824 294.566 321.301 C 295.066 321.773 295.316 322.363 295.316 323.066 C 295.316 323.422 295.242 323.773 295.098 324.121 C 294.949 324.473 294.707 324.836 294.371 325.215 C 294.031 325.594 293.469 326.121 292.684 326.789 C 292.02 327.344 291.598 327.715 291.41 327.91 C 291.227 328.105 291.07 328.305 290.949 328.508 Z M 296.504 325.152 C 296.504 324.098 296.613 323.25 296.832 322.602 C 297.047 321.953 297.371 321.457 297.801 321.109 C 298.23 320.762 298.77 320.586 299.418 320.586 C 299.898 320.586 300.32 320.684 300.68 320.875 C 301.043 321.066 301.34 321.344 301.574 321.711 C 301.809 322.074 301.992 322.516 302.129 323.039 C 302.266 323.562 302.332 324.27 302.332 325.152 C 302.332 326.199 302.223 327.043 302.008 327.688 C 301.789 328.332 301.469 328.832 301.043 329.184 C 300.617 329.539 300.074 329.715 299.418 329.715 C 298.555 329.715 297.879 329.406 297.391 328.789 C 296.801 328.043 296.504 326.828 296.504 325.152 Z M 297.633 325.152 C 297.633 326.621 297.805 327.598 298.148 328.082 C 298.488 328.566 298.91 328.809 299.418 328.809 C 299.918 328.809 300.34 328.566 300.688 328.078 C 301.031 327.59 301.203 326.613 301.203 325.152 C 301.203 323.684 301.031 322.707 300.688 322.223 C 300.34 321.738 299.914 321.496 299.41 321.496 C 298.902 321.496 298.5 321.711 298.199 322.137 C 297.824 322.68 297.633 323.684 297.633 325.152 Z M 297.633 325.152 " fill="#262626"/>
<path transform="matrix(2.7777777,0,0,2.7777777,-280.55,-70.18619)" d="M 364.691 327.199 L 365.781 327.055 C 365.914 327.68 366.129 328.125 366.43 328.398 C 366.734 328.672 367.102 328.809 367.535 328.809 C 368.051 328.809 368.484 328.629 368.84 328.273 C 369.191 327.914 369.371 327.473 369.371 326.945 C 369.371 326.438 369.207 326.023 368.879 325.699 C 368.551 325.371 368.133 325.211 367.625 325.211 C 367.418 325.211 367.16 325.25 366.855 325.328 L 366.973 324.363 C 367.043 324.375 367.102 324.383 367.148 324.383 C 367.613 324.383 368.035 324.258 368.41 324.016 C 368.781 323.773 368.969 323.395 368.969 322.891 C 368.969 322.484 368.832 322.152 368.559 321.883 C 368.289 321.617 367.938 321.484 367.508 321.484 C 367.086 321.484 366.73 321.621 366.445 321.891 C 366.16 322.16 365.977 322.562 365.898 323.094 L 364.797 322.898 C 364.934 322.164 365.238 321.594 365.715 321.191 C 366.188 320.789 366.781 320.586 367.488 320.586 C 367.977 320.586 368.426 320.691 368.832 320.898 C 369.242 321.109 369.555 321.395 369.773 321.758 C 369.992 322.121 370.102 322.504 370.102 322.91 C 370.102 323.293 369.996 323.645 369.789 323.961 C 369.582 324.281 369.273 324.535 368.871 324.723 C 369.398 324.84 369.809 325.09 370.102 325.477 C 370.395 325.867 370.539 326.344 370.539 326.918 C 370.539 327.695 370.254 328.359 369.688 328.902 C 369.117 329.445 368.398 329.715 367.527 329.715 C 366.742 329.715 366.09 329.48 365.574 329.016 C 365.055 328.547 364.762 327.941 364.691 327.199 Z M 371.621 325.152 C 371.621 324.098 371.73 323.25 371.945 322.602 C 372.164 321.953 372.488 321.457 372.918 321.109 C 373.344 320.762 373.887 320.586 374.535 320.586 C 375.016 320.586 375.438 320.684 375.797 320.875 C 376.156 321.066 376.457 321.344 376.688 321.711 C 376.922 322.074 377.109 322.516 377.246 323.039 C 377.383 323.562 377.449 324.27 377.449 325.152 C 377.449 326.199 377.34 327.043 377.125 327.688 C 376.906 328.332 376.582 328.832 376.156 329.184 C 375.73 329.539 375.191 329.715 374.535 329.715 C 373.672 329.715 372.996 329.406 372.508 328.789 C 371.914 328.043 371.621 326.828 371.621 325.152 Z M 372.75 325.152 C 372.75 326.621 372.922 327.598 373.262 328.082 C 373.605 328.566 374.027 328.809 374.535 328.809 C 375.035 328.809 375.457 328.566 375.801 328.078 C 376.148 327.59 376.32 326.613 376.32 325.152 C 376.32 323.684 376.148 322.707 375.801 322.223 C 375.457 321.738 375.031 321.496 374.523 321.496 C 374.02 321.496 373.617 321.711 373.316 322.137 C 372.938 322.68 372.75 323.684 372.75 325.152 Z M 372.75 325.152 " fill="#262626"/>
<path transform="matrix(2.7777777,0,0,2.7777777,-280.55,-70.18619)" d="M 443.316 329.559 L 443.316 327.426 L 439.438 327.426 L 439.438 326.41 L 443.512 320.625 L 444.406 320.625 L 444.406 326.41 L 445.617 326.41 L 445.617 327.426 L 444.406 327.426 L 444.406 329.559 Z M 443.316 326.41 L 443.316 322.383 L 440.52 326.41 Z M 446.738 325.152 C 446.738 324.098 446.844 323.25 447.062 322.602 C 447.281 321.953 447.605 321.457 448.031 321.109 C 448.461 320.762 449 320.586 449.652 320.586 C 450.133 320.586 450.555 320.684 450.914 320.875 C 451.273 321.066 451.57 321.344 451.805 321.711 C 452.039 322.074 452.227 322.516 452.359 323.039 C 452.496 323.562 452.566 324.27 452.566 325.152 C 452.566 326.199 452.457 327.043 452.238 327.688 C 452.023 328.332 451.699 328.832 451.273 329.184 C 450.848 329.539 450.309 329.715 449.652 329.715 C 448.785 329.715 448.109 329.406 447.625 328.789 C 447.031 328.043 446.738 326.828 446.738 325.152 Z M 447.867 325.152 C 447.867 326.621 448.039 327.598 448.379 328.082 C 448.719 328.566 449.145 328.809 449.652 328.809 C 450.152 328.809 450.574 328.566 450.918 328.078 C 451.262 327.59 451.434 326.613 451.434 325.152 C 451.434 323.684 451.262 322.707 450.918 322.223 C 450.574 321.738 450.148 321.496 449.641 321.496 C 449.133 321.496 448.73 321.711 448.434 322.137 C 448.055 322.68 447.867 323.684 447.867 325.152 Z M 447.867 325.152 " fill="#262626"/>
<path transform="matrix(2.7777777,0,0,2.7777777,-280.55,-70.18619)" d="M 514.914 327.219 L 516.062 327.121 C 516.148 327.68 516.348 328.102 516.656 328.387 C 516.969 328.668 517.348 328.809 517.789 328.809 C 518.316 328.809 518.762 328.609 519.125 328.215 C 519.488 327.816 519.672 327.289 519.672 326.625 C 519.672 326 519.496 325.508 519.145 325.148 C 518.793 324.785 518.336 324.605 517.77 324.605 C 517.41 324.605 517.09 324.684 516.809 324.844 C 516.527 325.004 516.305 325.215 516.141 325.473 L 515.109 325.336 L 515.977 320.742 L 520.422 320.742 L 520.422 321.797 L 516.852 321.797 L 516.375 324.195 C 516.906 323.82 517.469 323.629 518.062 323.629 C 518.84 323.629 519.5 323.902 520.035 324.445 C 520.57 324.988 520.84 325.684 520.84 326.527 C 520.84 327.34 520.602 328.039 520.129 328.625 C 519.555 329.352 518.777 329.715 517.789 329.715 C 516.977 329.715 516.312 329.488 515.797 329.035 C 515.277 328.578 514.984 327.973 514.914 327.219 Z M 521.852 325.152 C 521.852 324.098 521.961 323.25 522.18 322.602 C 522.398 321.953 522.719 321.457 523.148 321.109 C 523.578 320.762 524.117 320.586 524.766 320.586 C 525.25 320.586 525.668 320.684 526.031 320.875 C 526.391 321.066 526.688 321.344 526.922 321.711 C 527.156 322.074 527.34 322.516 527.477 323.039 C 527.613 323.562 527.684 324.27 527.684 325.152 C 527.684 326.199 527.574 327.043 527.355 327.688 C 527.137 328.332 526.816 328.832 526.391 329.184 C 525.965 329.539 525.422 329.715 524.766 329.715 C 523.902 329.715 523.227 329.406 522.738 328.789 C 522.148 328.043 521.852 326.828 521.852 325.152 Z M 522.984 325.152 C 522.984 326.621 523.152 327.598 523.496 328.082 C 523.836 328.566 524.262 328.809 524.766 328.809 C 525.27 328.809 525.691 328.566 526.035 328.078 C 526.379 327.59 526.551 326.613 526.551 325.152 C 526.551 323.684 526.379 322.707 526.035 322.223 C 525.691 321.738 525.266 321.496 524.758 321.496 C 524.25 321.496 523.848 321.711 523.547 322.137 C 523.172 322.68 522.984 323.684 522.984 325.152 Z M 522.984 325.152 " fill="#262626"/>
<path transform="matrix(2.7777777,0,0,2.7777777,-280.55,-70.18619)" d="M 331.957 348.449 L 332.66 346.082 L 332.875 346.082 C 332.73 347.297 332.688 348.086 332.738 348.445 C 332.789 348.809 332.871 349.129 332.98 349.418 C 333.055 349.594 332.996 349.68 332.816 349.68 C 332.746 349.68 332.539 349.637 332.203 349.547 C 331.863 349.461 331.336 349.145 330.621 348.605 C 329.906 348.066 329.316 347.352 328.852 346.457 C 328.387 345.562 328.027 344.043 327.777 341.898 L 325.582 342.004 L 325.094 342.172 L 324.559 341.742 L 327.727 341.574 C 327.656 340.684 327.602 339.934 327.566 339.328 C 327.531 338.719 327.492 338.074 327.453 337.391 L 328.742 338.035 L 328.312 338.414 C 328.352 339.809 328.406 340.844 328.477 341.527 L 331.102 341.359 L 331.801 340.668 L 332.875 341.574 L 328.527 341.848 C 328.742 343.953 329.168 345.484 329.812 346.434 C 330.457 347.383 331.172 348.055 331.957 348.449 Z M 329.656 338.199 L 329.707 337.984 C 331.062 338.449 331.809 338.805 331.934 339.055 C 332.059 339.305 332.125 339.484 332.125 339.594 C 332.125 339.738 332.07 339.891 331.961 340.051 C 331.855 340.207 331.766 340.289 331.695 340.289 C 331.551 340.289 331.41 340.129 331.266 339.809 C 330.98 339.344 330.445 338.805 329.656 338.199 Z M 323.914 341.633 L 323.914 347.426 C 323.914 348 323.934 348.625 323.973 349.309 L 323.117 349.68 C 323.148 348.789 323.164 348.055 323.164 347.477 L 323.164 341.574 C 322.309 342.934 321.484 343.973 320.699 344.688 L 320.543 344.531 C 321.004 343.918 321.441 343.266 321.855 342.57 C 322.266 341.875 322.676 341.07 323.086 340.156 C 323.496 339.242 323.863 338.199 324.188 337.02 L 325.367 337.773 C 325.082 337.914 324.777 338.309 324.453 338.953 C 324.133 339.629 323.832 340.234 323.547 340.777 L 324.297 341.254 Z M 337.809 345.008 C 337.52 345.477 337.25 345.926 336.996 346.355 C 337.465 346.457 338.02 346.582 338.664 346.723 C 338.984 346.367 339.305 345.793 339.629 345.008 Z M 335.605 337.773 C 336.285 338.199 336.699 338.523 336.84 338.738 C 336.984 338.953 337.055 339.109 337.055 339.215 C 337.055 339.398 336.992 339.578 336.867 339.758 C 336.738 339.934 336.641 340.023 336.57 340.023 C 336.465 340.023 336.359 339.848 336.246 339.488 C 336.105 338.988 335.836 338.449 335.449 337.879 Z M 340.215 337.605 L 341.18 338.25 C 340.895 338.32 340.645 338.5 340.43 338.785 C 340.184 339.07 339.773 339.5 339.199 340.074 L 339.035 339.965 C 339.719 338.895 340.109 338.105 340.215 337.605 Z M 337.809 337.02 L 338.988 337.559 L 338.559 337.926 L 338.559 340.395 L 339.895 340.395 L 340.488 339.809 L 341.395 340.719 L 338.559 340.719 L 338.559 341.203 C 339.375 341.379 339.887 341.551 340.082 341.711 C 340.281 341.875 340.379 342.078 340.379 342.324 C 340.379 342.438 340.363 342.57 340.328 342.73 C 340.289 342.891 340.238 342.969 340.164 342.969 C 340.094 342.969 339.969 342.848 339.785 342.598 C 339.5 342.203 339.09 341.824 338.559 341.469 L 338.559 343.137 L 337.914 343.566 L 338.664 343.887 C 338.484 343.957 338.25 344.227 337.961 344.688 L 339.629 344.688 L 340 344.207 L 340.809 344.902 L 340.32 345.176 C 339.965 345.992 339.645 346.566 339.355 346.891 C 339.93 347.035 340.312 347.184 340.512 347.344 C 340.711 347.504 340.809 347.711 340.809 347.965 C 340.809 348.215 340.754 348.344 340.645 348.344 C 340.539 348.344 340.418 348.27 340.273 348.121 C 339.875 347.832 339.43 347.582 338.93 347.367 C 337.68 348.375 336.199 349.039 334.484 349.359 L 334.426 349.203 C 336.066 348.664 337.355 347.965 338.285 347.105 C 337.57 346.852 336.875 346.672 336.199 346.57 C 336.34 346.355 336.629 345.832 337.055 345.008 L 336.355 345.008 C 335.895 345.008 335.465 345.062 335.066 345.176 L 334.59 344.688 L 337.164 344.688 C 337.305 344.328 337.449 343.898 337.594 343.398 L 337.855 343.508 L 337.855 341.312 C 336.895 342.418 335.785 343.277 334.531 343.887 L 334.426 343.723 C 335.75 342.793 336.75 341.789 337.426 340.719 L 336.461 340.719 C 336 340.719 335.57 340.773 335.176 340.883 L 334.695 340.395 L 337.855 340.395 C 337.855 339.109 337.84 337.984 337.809 337.02 Z M 342.203 340.719 C 342.379 342.793 342.809 344.527 343.488 345.926 C 344.062 344.711 344.418 342.973 344.562 340.719 Z M 342.465 337.02 L 343.703 337.715 C 343.418 337.824 343.203 338.039 343.062 338.363 C 342.918 338.684 342.648 339.363 342.254 340.395 L 345.312 340.395 L 345.957 339.75 L 346.922 340.719 L 345.363 340.719 C 345.148 343.363 344.684 345.328 343.969 346.617 C 344.793 347.617 345.758 348.246 346.863 348.5 L 346.863 348.715 C 346.188 348.824 345.828 349.039 345.789 349.359 C 344.859 348.715 344.094 347.98 343.488 347.152 C 342.309 348.305 340.895 349.145 339.25 349.68 L 339.141 349.523 C 340.785 348.77 342.094 347.785 343.062 346.57 C 342.379 344.883 342.02 343.043 341.988 341.039 C 341.633 341.969 341.113 342.848 340.43 343.672 L 340.273 343.566 C 341.133 342.133 341.863 339.953 342.465 337.02 Z M 342.465 337.02 " fill="#262626"/>
<path transform="matrix(2.7765415,0,0,2.7777777,-280.55,-70.18619)" stroke-width=".624167" stroke-linecap="square" stroke-linejoin="round" fill="none" stroke="#262626" d="M 146.053 311.461 L 146.053 56.176 "/>
<path transform="matrix(2.7765415,0,0,2.7777777,-280.55,-70.18619)" stroke-width=".624167" stroke-linecap="square" stroke-linejoin="round" fill="none" stroke="#262626" d="M 521.803 311.461 L 521.803 56.176 "/>
<path transform="matrix(2.7765415,0,0,2.7777777,-280.55,-70.18619)" stroke-width=".624167" stroke-linecap="square" stroke-linejoin="round" fill="none" stroke="#262626" d="M 146.053 308.965 L 149.813 308.965 "/>
<path transform="matrix(2.7765415,0,0,2.7777777,-280.55,-70.18619)" stroke-width=".624167" stroke-linecap="square" stroke-linejoin="round" fill="none" stroke="#262626" d="M 146.053 257.906 L 149.813 257.906 "/>
<path transform="matrix(2.7765415,0,0,2.7777777,-280.55,-70.18619)" stroke-width=".624167" stroke-linecap="square" stroke-linejoin="round" fill="none" stroke="#262626" d="M 146.053 206.852 L 149.813 206.852 "/>
<path transform="matrix(2.7765415,0,0,2.7777777,-280.55,-70.18619)" stroke-width=".624167" stroke-linecap="square" stroke-linejoin="round" fill="none" stroke="#262626" d="M 146.053 155.793 L 149.813 155.793 "/>
<path transform="matrix(2.7765415,0,0,2.7777777,-280.55,-70.18619)" stroke-width=".624167" stroke-linecap="square" stroke-linejoin="round" fill="none" stroke="#262626" d="M 146.053 104.738 L 149.813 104.738 "/>
<path transform="matrix(2.7765415,0,0,2.7777777,-280.55,-70.18619)" stroke-width=".624167" stroke-linecap="square" stroke-linejoin="round" fill="none" stroke="#262626" d="M 521.803 308.965 L 518.047 308.965 "/>
<path transform="matrix(2.7765415,0,0,2.7777777,-280.55,-70.18619)" stroke-width=".624167" stroke-linecap="square" stroke-linejoin="round" fill="none" stroke="#262626" d="M 521.803 257.906 L 518.047 257.906 "/>
<path transform="matrix(2.7765415,0,0,2.7777777,-280.55,-70.18619)" stroke-width=".624167" stroke-linecap="square" stroke-linejoin="round" fill="none" stroke="#262626" d="M 521.803 206.852 L 518.047 206.852 "/>
<path transform="matrix(2.7765415,0,0,2.7777777,-280.55,-70.18619)" stroke-width=".624167" stroke-linecap="square" stroke-linejoin="round" fill="none" stroke="#262626" d="M 521.803 155.793 L 518.047 155.793 "/>
<path transform="matrix(2.7765415,0,0,2.7777777,-280.55,-70.18619)" stroke-width=".624167" stroke-linecap="square" stroke-linejoin="round" fill="none" stroke="#262626" d="M 521.803 104.738 L 518.047 104.738 "/>
<path transform="matrix(2.7777777,0,0,2.7777777,-280.55,-70.18619)" d="M 134.027 309.551 C 134.027 308.496 134.137 307.648 134.355 307 C 134.574 306.352 134.895 305.855 135.324 305.508 C 135.754 305.16 136.293 304.984 136.945 304.984 C 137.426 304.984 137.844 305.082 138.207 305.273 C 138.566 305.465 138.863 305.742 139.098 306.109 C 139.332 306.473 139.516 306.914 139.652 307.438 C 139.789 307.961 139.859 308.664 139.859 309.551 C 139.859 310.598 139.75 311.441 139.531 312.086 C 139.312 312.73 138.992 313.227 138.566 313.582 C 138.141 313.938 137.602 314.113 136.945 314.113 C 136.078 314.113 135.402 313.805 134.914 313.188 C 134.324 312.441 134.027 311.227 134.027 309.551 Z M 135.16 309.551 C 135.16 311.02 135.332 311.996 135.672 312.48 C 136.012 312.965 136.438 313.207 136.945 313.207 C 137.445 313.207 137.867 312.965 138.211 312.477 C 138.555 311.988 138.727 311.012 138.727 309.551 C 138.727 308.082 138.555 307.105 138.211 306.621 C 137.867 306.137 137.441 305.895 136.934 305.895 C 136.426 305.895 136.023 306.105 135.727 306.535 C 135.348 307.074 135.16 308.082 135.16 309.551 Z M 135.16 309.551 " fill="#262626"/>
<path transform="matrix(2.7777777,0,0,2.7777777,-280.55,-70.18619)" d="M 138.164 262.902 L 137.062 262.902 L 137.062 255.91 C 136.801 256.164 136.457 256.414 136.027 256.664 C 135.598 256.914 135.211 257.105 134.867 257.234 L 134.867 256.172 C 135.484 255.887 136.023 255.535 136.48 255.125 C 136.938 254.711 137.262 254.312 137.449 253.93 L 138.164 253.93 Z M 138.164 262.902 " fill="#262626"/>
<path transform="matrix(2.7777777,0,0,2.7777777,-280.55,-70.18619)" d="M 139.789 210.793 L 139.789 211.844 L 133.891 211.844 C 133.887 211.578 133.93 211.324 134.02 211.082 C 134.168 210.68 134.41 210.285 134.742 209.895 C 135.07 209.504 135.551 209.051 136.172 208.539 C 137.148 207.746 137.805 207.117 138.148 206.652 C 138.488 206.188 138.66 205.746 138.66 205.328 C 138.66 204.895 138.504 204.527 138.191 204.227 C 137.879 203.93 137.473 203.777 136.973 203.777 C 136.445 203.777 136.023 203.938 135.707 204.258 C 135.387 204.574 135.227 205.016 135.227 205.574 L 134.098 205.457 C 134.176 204.617 134.465 203.977 134.969 203.535 C 135.473 203.094 136.152 202.871 137.004 202.871 C 137.852 202.871 138.531 203.109 139.031 203.586 C 139.531 204.059 139.781 204.648 139.781 205.348 C 139.781 205.707 139.707 206.059 139.562 206.406 C 139.414 206.754 139.172 207.121 138.836 207.5 C 138.496 207.879 137.934 208.406 137.148 209.074 C 136.484 209.629 136.062 210 135.875 210.195 C 135.691 210.391 135.535 210.59 135.414 210.793 Z M 139.789 210.793 " fill="#262626"/>
<path transform="matrix(2.7777777,0,0,2.7777777,-280.55,-70.18619)" d="M 134.039 158.426 L 135.129 158.281 C 135.262 158.906 135.477 159.355 135.777 159.629 C 136.082 159.898 136.449 160.035 136.887 160.035 C 137.398 160.035 137.832 159.859 138.188 159.5 C 138.539 159.145 138.719 158.699 138.719 158.176 C 138.719 157.668 138.555 157.25 138.227 156.926 C 137.898 156.602 137.48 156.438 136.973 156.438 C 136.766 156.438 136.508 156.477 136.203 156.555 L 136.32 155.59 C 136.391 155.602 136.449 155.609 136.496 155.609 C 136.965 155.609 137.383 155.488 137.758 155.242 C 138.133 155 138.316 154.625 138.316 154.117 C 138.316 153.715 138.18 153.379 137.91 153.113 C 137.637 152.848 137.285 152.711 136.855 152.711 C 136.434 152.711 136.078 152.848 135.793 153.117 C 135.508 153.387 135.324 153.789 135.246 154.32 L 134.145 154.125 C 134.281 153.391 134.586 152.824 135.062 152.422 C 135.535 152.016 136.129 151.816 136.836 151.816 C 137.324 151.816 137.773 151.918 138.184 152.129 C 138.59 152.336 138.906 152.621 139.121 152.984 C 139.34 153.352 139.449 153.734 139.449 154.137 C 139.449 154.52 139.344 154.871 139.137 155.191 C 138.93 155.508 138.625 155.762 138.219 155.949 C 138.746 156.066 139.156 156.32 139.449 156.707 C 139.742 157.094 139.887 157.574 139.887 158.145 C 139.887 158.926 139.602 159.586 139.035 160.129 C 138.465 160.672 137.746 160.945 136.875 160.945 C 136.09 160.945 135.438 160.711 134.922 160.242 C 134.402 159.773 134.109 159.168 134.039 158.426 Z M 134.039 158.426 " fill="#262626"/>
<path transform="matrix(2.7777777,0,0,2.7777777,-280.55,-70.18619)" d="M 137.547 109.73 L 137.547 107.594 L 133.668 107.594 L 133.668 106.582 L 137.742 100.797 L 138.641 100.797 L 138.641 106.582 L 139.848 106.582 L 139.848 107.594 L 138.641 107.594 L 138.641 109.73 Z M 137.547 106.582 L 137.547 102.555 L 134.75 106.582 Z M 137.547 106.582 " fill="#262626"/>
<path transform="matrix(2.7777777,0,0,2.7777777,-280.55,-70.18619)" d="M 121.98 198.191 L 124.66 198.191 L 124.66 193.844 L 121.98 193.844 Z M 117 196.418 C 117.07 197.562 117.121 198.617 117.156 199.586 L 116.941 199.586 C 116.797 197.941 116.609 196.602 116.379 195.562 C 116.148 194.527 115.871 193.773 115.547 193.305 L 116.617 192.613 C 116.617 193.004 116.645 193.449 116.703 193.949 C 116.758 194.449 116.82 195.023 116.891 195.668 L 119.301 195.668 L 119.301 193.043 L 118.547 192.293 L 119.621 191.375 L 119.621 195.668 L 121.66 195.668 L 121.66 193.949 L 121.121 193.629 L 121.766 192.723 L 122.145 193.148 C 123.68 193.148 124.805 193.129 125.52 193.09 L 125.84 193.844 L 124.984 193.844 L 124.984 198.191 L 125.625 198.191 L 125.898 198.941 C 125.145 198.902 124.32 198.883 123.426 198.883 C 122.535 198.883 121.801 198.902 121.23 198.941 L 121.66 198.133 L 121.66 196.418 L 119.621 196.418 L 119.621 198.621 C 119.621 199.121 119.676 199.566 119.785 199.957 L 119.301 200.445 L 119.301 196.418 Z M 124.984 200.98 C 125.309 200.656 125.656 200.207 126.031 199.637 C 126.402 199.062 126.609 197.992 126.648 196.418 C 126.688 194.844 126.598 193.109 126.375 191.219 L 126.59 191.219 C 126.742 191.934 127.047 192.293 127.508 192.293 C 127.508 193.793 127.488 195.098 127.453 196.207 C 127.418 197.316 127.285 198.191 127.055 198.836 C 126.824 199.48 126.473 200.016 126.008 200.445 C 125.578 200.875 125.363 201.18 125.363 201.355 C 125.363 201.535 125.566 201.82 125.977 202.215 C 126.387 202.609 126.754 202.875 127.078 203.02 L 126.375 203.82 C 125.914 203.246 125.434 202.531 124.934 201.676 L 120.906 201.676 L 120.906 202.375 C 120.906 202.664 120.965 203 121.074 203.391 L 120.586 203.879 L 120.586 201.781 L 120.051 201.461 L 120.691 200.551 L 121.074 200.98 Z M 116.461 202.855 L 116.297 202.746 C 116.621 202.141 116.918 201.695 117.184 201.41 C 117.449 201.125 117.707 200.98 117.957 200.98 C 118.211 200.98 118.414 201.055 118.578 201.195 C 118.742 201.34 118.82 201.445 118.82 201.52 C 118.82 201.66 118.625 201.785 118.227 201.887 C 117.656 202.07 117.066 202.391 116.461 202.855 Z M 119.727 186.715 C 121.301 185.57 122.285 184.926 122.676 184.781 C 123.07 184.641 123.395 184.566 123.648 184.566 C 123.824 184.566 124.008 184.594 124.207 184.645 C 124.406 184.699 124.559 184.824 124.664 185.02 C 124.773 185.219 124.379 185.391 123.48 185.535 C 122.625 185.707 121.406 186.156 119.836 186.871 Z M 119.301 184.031 C 120.371 183.246 121.188 182.699 121.742 182.395 C 122.297 182.086 122.762 181.961 123.137 182.02 C 123.508 182.074 123.75 182.172 123.855 182.316 C 123.965 182.457 124.016 182.547 124.016 182.578 C 124.016 182.793 123.66 182.938 122.945 183.008 C 122.055 183.152 120.875 183.562 119.406 184.246 Z M 126.484 188.156 L 126.484 181.934 C 124.594 181.188 123.156 180.672 122.172 180.383 C 121.184 180.098 120.211 179.863 119.25 179.684 L 120 178.453 C 120.105 178.699 120.82 179.094 122.145 179.633 C 123.465 180.207 124.91 180.848 126.484 181.562 L 126.484 179.684 L 125.578 178.773 L 126.816 177.535 L 126.816 186.391 C 126.816 186.852 126.867 187.281 126.973 187.68 Z M 117.047 188.586 L 117.582 187.785 L 117.582 179.789 L 116.727 178.93 L 117.906 177.75 L 117.906 187.785 C 119.16 187.785 120.367 187.793 121.527 187.812 C 122.688 187.828 123.785 187.996 124.82 188.316 C 125.859 188.641 126.879 189.195 127.887 189.98 L 127.781 190.145 C 126.488 189.43 125.234 188.984 124.016 188.805 C 122.801 188.625 121.641 188.539 120.531 188.539 C 119.426 188.539 118.262 188.555 117.047 188.586 Z M 115.438 183.867 C 115.867 183.078 116.164 182.641 116.324 182.555 C 116.488 182.465 116.621 182.422 116.727 182.422 C 116.867 182.422 117.02 182.465 117.184 182.555 C 117.348 182.641 117.465 182.766 117.535 182.93 C 117.605 183.094 117.465 183.211 117.105 183.281 C 116.75 183.352 116.23 183.602 115.547 184.031 Z M 122.301 171.48 C 121.586 171.441 120.766 171.422 119.836 171.422 L 119.836 172.816 L 119.941 173.461 L 119.516 173.891 L 119.516 171.422 C 118.98 171.422 118.395 171.441 117.75 171.48 L 118.336 170.301 L 118.605 170.73 L 119.516 170.73 L 119.516 167.727 C 118.91 167.727 118.336 167.742 117.797 167.773 L 118.336 166.547 L 118.656 167.023 L 119.516 167.023 L 119.516 166.008 L 118.82 165.305 L 119.836 164.293 L 119.836 167.023 C 120.875 167.023 121.555 167.008 121.871 166.973 L 122.195 167.727 L 121.719 167.727 L 121.719 170.73 L 121.98 170.73 Z M 123.434 166.488 C 124.465 167.312 125.234 168.012 125.734 168.582 C 126.453 167.438 126.852 165.918 126.922 164.02 L 127.137 164.02 C 127.242 164.59 127.473 164.934 127.828 165.043 C 127.512 166.719 126.953 168.059 126.16 169.062 C 127.129 170.777 127.742 172.637 127.996 174.641 L 127.781 174.699 C 127.422 172.801 126.723 171.082 125.684 169.551 C 125.004 170.227 124.16 170.848 123.16 171.422 L 123.16 171.957 L 123.266 172.445 L 122.836 172.875 L 122.836 167.238 L 122.359 166.758 L 123.16 165.949 Z M 123.16 171.156 C 124.09 170.477 124.805 169.797 125.305 169.121 C 124.629 168.406 123.914 167.797 123.16 167.297 Z M 119.836 170.73 L 121.395 170.73 L 121.395 167.727 L 119.836 167.727 Z M 116.676 174.855 L 117.215 173.949 L 117.215 169.703 C 117 169.742 116.766 169.824 116.516 169.949 C 116.266 170.07 115.906 170.332 115.438 170.73 L 115.332 170.562 C 115.688 169.742 115.969 169.27 116.164 169.145 C 116.363 169.016 116.48 168.953 116.512 168.953 C 116.727 168.953 116.961 169.098 117.215 169.383 L 117.215 165.902 L 116.461 165.152 L 117.535 164.078 L 117.535 173.996 C 119.68 173.965 121.352 174.027 122.547 174.188 C 123.742 174.344 124.77 174.605 125.629 174.961 C 126.492 175.32 127.281 175.77 127.996 176.309 L 127.887 176.465 C 126.633 175.75 125.328 175.293 123.969 175.098 C 122.609 174.902 121.223 174.797 119.812 174.777 C 118.398 174.758 117.352 174.781 116.676 174.855 Z M 116.676 174.855 " fill="#262626"/>
<path transform="matrix(2.7777777,0,0,2.7777777,-280.55,-70.18619)" d="M 286.98 41.625 C 286.98 41.09 286.961 40.574 286.922 40.074 L 288.051 40.609 L 287.672 40.875 L 287.672 41.625 L 289.555 41.625 L 289.98 41.145 L 290.781 41.898 L 290.41 42.113 C 290.41 42.828 290.426 43.379 290.461 43.77 L 289.707 43.984 L 289.707 43.555 L 287.672 43.555 L 287.672 44.629 L 290.246 44.629 L 290.945 43.984 L 291.805 44.949 L 284.453 44.949 C 284.168 44.949 283.832 45.004 283.441 45.117 L 282.953 44.629 L 286.98 44.629 L 286.98 43.555 L 284.992 43.555 L 284.992 43.828 L 284.238 44.043 C 284.277 43.359 284.297 42.852 284.297 42.512 C 284.297 42.172 284.277 41.754 284.238 41.254 L 284.992 41.625 Z M 284.992 41.945 L 284.992 43.234 L 286.98 43.234 L 286.98 41.945 Z M 287.672 41.945 L 287.672 43.234 L 289.707 43.234 L 289.707 41.945 Z M 290.246 46.188 C 290.246 47.191 290.266 48.012 290.305 48.656 L 289.555 48.977 L 289.555 46.023 L 285.051 46.023 L 285.051 48.812 L 284.297 49.133 C 284.332 48.457 284.348 47.824 284.348 47.23 C 284.348 46.641 284.332 46.008 284.297 45.332 L 285.051 45.699 L 289.496 45.699 L 289.816 45.223 L 290.625 45.867 Z M 286.812 46.453 L 287.887 47.047 L 287.562 47.309 C 287.277 49.281 286.027 50.461 283.812 50.852 L 283.703 50.695 C 285.672 50.012 286.711 48.867 286.812 47.262 Z M 287.516 48.977 C 288.516 49.191 289.258 49.398 289.738 49.594 C 290.219 49.785 290.477 49.984 290.512 50.184 C 290.551 50.379 290.566 50.516 290.566 50.586 C 290.566 50.762 290.539 50.902 290.488 51.012 C 290.438 51.117 290.391 51.172 290.352 51.172 C 290.211 51.172 290.016 51.012 289.766 50.695 C 289.371 50.266 288.602 49.766 287.457 49.191 Z M 280.594 40.98 L 280.703 40.824 C 281.383 41.184 281.859 41.492 282.125 41.762 C 282.391 42.027 282.516 42.285 282.5 42.535 C 282.484 42.785 282.402 42.977 282.262 43.102 C 282.117 43.227 282.012 43.293 281.941 43.293 C 281.797 43.293 281.668 43.078 281.559 42.648 C 281.418 42.109 281.094 41.551 280.594 40.98 Z M 282.262 49.672 C 282.508 50.137 282.953 50.551 283.598 50.91 C 284.238 51.266 285.348 51.48 286.922 51.551 C 288.492 51.625 290.211 51.551 292.066 51.336 L 292.066 51.551 C 291.465 51.734 291.125 52.004 291.055 52.363 C 289.34 52.363 287.961 52.336 286.926 52.277 C 285.891 52.223 285.012 52.062 284.297 51.797 C 283.582 51.531 283.047 51.199 282.691 50.801 C 282.332 50.445 282.066 50.238 281.887 50.184 C 281.707 50.125 281.41 50.324 281 50.773 C 280.586 51.219 280.309 51.57 280.164 51.824 L 279.367 51.066 C 279.938 50.602 280.668 50.156 281.559 49.73 L 281.559 45.379 L 281.188 45.379 C 280.723 45.379 280.293 45.434 279.902 45.543 L 279.414 45.059 L 281.512 45.059 L 281.832 44.52 L 282.738 45.164 L 282.262 45.594 Z M 300.539 45.973 C 300.395 46.578 300.254 47.203 300.109 47.848 L 303.172 47.848 L 303.707 47.262 L 304.723 48.227 C 304.332 48.227 303.887 48.477 303.387 48.977 C 302.887 49.477 302.328 50.066 301.719 50.742 C 302.543 51.066 303.055 51.348 303.25 51.582 C 303.445 51.816 303.543 52.02 303.543 52.195 C 303.543 52.266 303.516 52.383 303.465 52.547 C 303.41 52.711 303.332 52.789 303.219 52.789 C 303.117 52.789 302.992 52.699 302.852 52.52 C 302.523 52.199 302.023 51.816 301.344 51.367 C 300.664 50.918 299.879 50.48 298.988 50.051 L 299.039 49.836 C 300.184 50.195 300.988 50.461 301.457 50.637 L 303.172 48.168 L 300.109 48.168 L 299.68 48.656 L 298.93 47.953 L 299.359 47.633 C 299.504 47.203 299.645 46.648 299.789 45.973 L 298.668 45.973 C 298.199 45.973 297.77 46.027 297.379 46.129 L 296.895 45.652 L 299.848 45.652 C 299.988 44.938 300.133 44.223 300.277 43.508 L 299.254 43.508 C 298.793 43.508 298.363 43.559 297.965 43.664 L 297.488 43.184 L 300.324 43.184 C 300.539 42.145 300.684 41.145 300.754 40.18 L 301.992 40.766 L 301.504 41.145 C 301.363 41.789 301.219 42.469 301.074 43.184 L 303.492 43.184 L 304.078 42.59 L 304.996 43.508 L 301.027 43.508 C 300.883 44.148 300.742 44.863 300.598 45.652 L 304.027 45.652 L 304.672 45.008 L 305.637 45.973 Z M 296.414 44.52 L 296.414 49.836 C 296.414 50.266 296.434 51.105 296.465 52.363 L 295.559 52.684 C 295.59 51.43 295.605 50.516 295.605 49.941 L 295.605 44.629 C 294.715 46.027 293.914 47.062 293.199 47.738 L 293.031 47.582 C 293.645 46.828 294.289 45.809 294.969 44.52 C 295.648 43.234 296.203 41.785 296.629 40.18 L 297.809 40.934 C 297.523 41.074 297.289 41.34 297.109 41.73 C 296.895 42.16 296.57 42.824 296.145 43.723 L 296.895 44.148 Z M 312.07 48.062 C 312.031 48.633 311.977 49.188 311.906 49.73 L 314.539 49.73 L 314.539 48.062 Z M 316.84 46.879 C 316.84 47.168 316.859 47.633 316.898 48.277 L 316.086 48.598 L 316.086 48.062 L 315.289 48.062 L 315.289 49.672 L 317.695 49.672 L 318.445 48.977 L 319.41 49.992 L 315.289 49.992 C 315.289 51.215 315.305 52.004 315.336 52.363 L 314.48 52.73 C 314.52 51.66 314.539 50.766 314.539 50.051 L 311.855 50.051 C 311.605 50.836 311.074 51.445 310.273 51.875 C 309.469 52.305 308.605 52.59 307.676 52.73 L 307.617 52.578 C 308.656 52.219 309.434 51.852 309.953 51.473 C 310.469 51.098 310.832 50.621 311.047 50.051 L 308.746 50.051 C 308.281 50.051 307.852 50.102 307.461 50.207 L 306.973 49.73 L 311.105 49.73 C 311.18 49.227 311.23 48.672 311.262 48.062 L 310.297 48.062 L 310.297 48.488 L 309.547 48.762 C 309.586 47.652 309.594 46.516 309.574 45.355 C 309.555 44.195 309.531 43.488 309.496 43.234 L 310.297 43.664 L 316.039 43.664 L 316.359 43.184 L 317.219 43.77 L 316.84 44.09 Z M 310.297 43.984 L 310.297 44.949 L 316.086 44.949 L 316.086 43.984 Z M 310.297 45.273 L 310.297 46.297 L 316.086 46.297 L 316.086 45.273 Z M 310.297 46.617 L 310.297 47.738 L 316.086 47.738 L 316.086 46.617 Z M 309.711 40.016 L 310.785 40.609 C 310.57 40.715 310.398 40.836 310.273 40.98 C 310.145 41.125 309.977 41.359 309.762 41.684 L 312.121 41.684 L 312.762 41.039 L 313.621 42.004 L 310.891 42.004 C 311.641 42.395 311.969 42.723 311.883 42.996 C 311.793 43.266 311.703 43.426 311.613 43.477 C 311.523 43.527 311.441 43.555 311.371 43.555 C 311.266 43.555 311.195 43.492 311.16 43.371 C 311.125 43.246 311.086 43.059 311.047 42.805 C 310.977 42.59 310.797 42.324 310.512 42.004 L 309.605 42.004 C 309.246 42.539 308.906 42.984 308.586 43.34 C 308.266 43.699 307.855 44.055 307.352 44.414 L 307.246 44.258 C 307.566 43.934 307.938 43.465 308.367 42.859 C 308.797 42.25 309.246 41.301 309.711 40.016 Z M 314.91 40.074 L 315.875 40.719 C 315.699 40.75 315.52 40.875 315.344 41.086 C 315.164 41.301 315.004 41.516 314.859 41.73 L 317.754 41.73 L 318.398 41.145 L 319.199 42.055 L 316.359 42.055 C 317.25 42.34 317.695 42.617 317.695 42.887 C 317.695 43.156 317.633 43.344 317.512 43.453 C 317.387 43.559 317.305 43.613 317.266 43.613 C 317.195 43.613 317.117 43.531 317.027 43.371 C 316.941 43.207 316.844 43.027 316.734 42.832 C 316.629 42.637 316.379 42.379 315.98 42.055 L 314.695 42.055 C 314.445 42.309 314.215 42.559 314 42.805 C 313.75 43.09 313.496 43.34 313.25 43.555 L 313.086 43.449 C 313.516 42.914 313.918 42.281 314.293 41.547 C 314.672 40.812 314.875 40.32 314.91 40.074 Z M 328.203 43.078 C 328.203 41.535 328.188 40.516 328.156 40.016 L 329.441 40.66 L 328.906 41.195 L 328.906 43.078 L 330.992 43.078 L 331.586 42.48 L 332.445 43.398 L 328.906 43.398 L 328.906 46.297 L 331.742 46.297 L 332.387 45.652 L 333.305 46.617 L 328.262 46.617 L 329.121 47.203 C 328.797 47.344 328.453 47.688 328.098 48.227 C 327.738 48.762 326.918 49.707 325.633 51.066 L 331.266 50.695 C 330.797 50.051 330.297 49.422 329.766 48.812 L 329.871 48.656 C 330.516 49.117 331.023 49.492 331.398 49.777 C 331.77 50.062 332.074 50.34 332.309 50.609 C 332.543 50.883 332.66 51.125 332.66 51.336 C 332.66 51.551 332.59 51.766 332.445 51.98 C 332.301 52.195 332.211 52.305 332.172 52.305 C 332.07 52.305 331.98 52.195 331.91 51.98 C 331.766 51.625 331.605 51.281 331.422 50.957 C 329.422 51.172 327.902 51.406 326.863 51.66 C 325.828 51.914 325.238 52.129 325.094 52.305 L 324.559 51.066 C 325.027 51.066 325.645 50.527 326.41 49.457 C 327.18 48.383 327.703 47.438 327.992 46.617 L 326.012 46.617 C 325.543 46.617 325.113 46.668 324.727 46.773 L 324.238 46.297 L 328.203 46.297 L 328.203 43.398 L 327.023 43.398 C 326.562 43.398 326.137 43.449 325.738 43.555 L 325.262 43.078 Z M 325.152 42.434 C 323.758 46.223 322.996 48.344 322.871 48.789 C 322.75 49.234 322.695 49.777 322.711 50.426 C 322.727 51.074 322.754 51.52 322.793 51.766 C 322.793 51.91 322.703 51.98 322.523 51.98 C 322.379 51.98 322.199 51.945 321.984 51.875 C 321.77 51.801 321.664 51.645 321.664 51.395 C 321.664 51.215 321.719 50.945 321.828 50.586 C 321.934 50.23 321.984 49.941 321.984 49.73 C 321.984 49.477 321.906 49.277 321.746 49.133 C 321.586 48.992 321.238 48.848 320.699 48.703 L 320.699 48.488 C 321.344 48.562 321.746 48.59 321.906 48.574 C 322.07 48.555 322.25 48.395 322.445 48.09 C 322.637 47.785 323.469 45.879 324.938 42.375 Z M 320.758 43.613 C 322.004 44.258 322.629 44.785 322.629 45.195 C 322.629 45.602 322.531 45.879 322.336 46.023 C 322.141 46.164 321.973 45.988 321.828 45.484 C 321.648 45.023 321.254 44.453 320.648 43.77 Z M 321.984 40.504 C 322.984 41.004 323.531 41.379 323.625 41.629 C 323.715 41.879 323.758 42.055 323.758 42.16 C 323.758 42.344 323.695 42.504 323.57 42.648 C 323.441 42.793 323.344 42.863 323.273 42.863 C 323.168 42.863 323.062 42.684 322.949 42.328 C 322.773 41.859 322.418 41.301 321.879 40.66 Z M 336.52 52.625 C 336.551 51.586 336.57 50.727 336.57 50.051 L 336.57 44.305 C 335.75 45.488 335.035 46.383 334.426 46.988 L 334.27 46.832 C 334.871 46.008 335.488 44.961 336.117 43.691 C 336.742 42.422 337.215 41.234 337.535 40.121 L 338.664 40.824 C 338.27 41.07 337.66 42.035 336.84 43.723 L 337.75 44.199 L 337.32 44.629 L 337.32 50.312 C 337.32 50.672 337.34 51.297 337.379 52.195 Z M 342.953 40.875 C 344.312 41.34 345.035 41.684 345.121 41.898 C 345.211 42.113 345.254 42.289 345.254 42.434 C 345.254 42.609 345.211 42.785 345.121 42.965 C 345.035 43.145 344.957 43.234 344.883 43.234 C 344.742 43.234 344.598 43.074 344.457 42.754 C 344.168 42.254 343.633 41.684 342.848 41.039 Z M 340.809 44.199 L 340.809 42.375 C 340.809 41.629 340.789 40.914 340.75 40.23 L 342.039 40.824 L 341.559 41.254 L 341.559 44.199 L 344.562 44.199 L 345.254 43.508 L 346.277 44.52 L 343.062 44.52 L 343.062 50.695 C 343.062 51.195 343.312 51.445 343.812 51.445 L 345.422 51.445 C 345.668 51.375 345.828 51.086 345.898 50.586 C 345.969 50.086 346.004 49.551 346.004 48.977 L 346.277 48.977 C 346.277 49.512 346.305 50.02 346.355 50.504 C 346.406 50.988 346.598 51.266 346.922 51.336 C 346.637 51.84 346.242 52.09 345.742 52.09 L 343.598 52.09 C 342.773 52.129 342.359 51.785 342.359 51.066 L 342.359 44.52 L 341.559 44.52 C 341.52 45.809 341.375 46.945 341.125 47.93 C 340.875 48.914 340.465 49.793 339.895 50.562 C 339.32 51.332 338.535 52.055 337.535 52.73 L 337.379 52.578 C 338.125 51.965 338.75 51.273 339.25 50.504 C 339.75 49.734 340.125 48.848 340.375 47.848 C 340.625 46.844 340.77 45.738 340.809 44.52 L 339.629 44.52 C 339.16 44.52 338.734 44.574 338.344 44.688 L 337.855 44.199 Z M 350.461 52.625 C 350.492 51.48 350.508 50.387 350.508 49.348 L 350.508 44.629 C 349.723 45.812 348.973 46.777 348.258 47.523 L 348.102 47.367 C 348.887 46.258 349.621 44.969 350.301 43.5 C 350.977 42.035 351.406 40.93 351.582 40.18 L 352.762 40.875 L 352.223 41.195 C 351.762 42.234 351.336 43.129 350.938 43.879 L 351.688 44.305 L 351.258 44.734 L 351.258 50.586 C 351.258 50.977 351.277 51.512 351.316 52.195 Z M 354.906 46.773 L 354.906 42.91 C 354.906 42.125 354.891 41.215 354.855 40.18 L 356.086 40.766 L 355.656 41.195 L 355.656 46.188 C 356.156 45.719 356.703 45.129 357.293 44.414 C 357.887 43.699 358.305 43.125 358.551 42.695 L 359.516 43.613 L 358.93 43.77 C 357.891 44.953 356.801 46.047 355.656 47.047 L 355.656 50.422 C 355.656 51.031 355.961 51.336 356.574 51.336 L 358.871 51.336 C 359.16 51.336 359.336 51.105 359.41 50.641 C 359.48 50.176 359.516 49.457 359.516 48.488 L 359.789 48.488 C 359.859 49.457 359.949 50.105 360.059 50.426 C 360.164 50.746 360.359 50.961 360.648 51.066 C 360.32 51.715 359.801 52.039 359.086 52.039 L 356.25 52.039 C 355.355 52.039 354.906 51.629 354.906 50.801 L 354.906 47.523 C 353.977 48.238 352.902 48.848 351.688 49.348 L 351.641 49.133 C 352.887 48.418 353.977 47.633 354.906 46.773 Z M 366.594 44.473 L 366.699 44.305 C 367.453 44.809 367.984 45.227 368.285 45.57 C 368.586 45.91 368.73 46.207 368.715 46.457 C 368.699 46.707 368.625 46.895 368.5 47.016 C 368.371 47.141 368.273 47.203 368.203 47.203 C 368.059 47.203 367.918 46.973 367.773 46.512 C 367.559 45.867 367.164 45.188 366.594 44.473 Z M 370.668 43.234 C 370.668 41.66 370.652 40.605 370.621 40.074 L 371.848 40.66 L 371.418 41.086 L 371.418 43.234 L 372.598 43.234 L 373.301 42.539 L 374.266 43.555 L 371.418 43.555 L 371.418 49.348 C 371.418 49.746 371.34 50.051 371.18 50.266 C 371.02 50.48 370.762 50.66 370.406 50.801 C 370.191 50.23 369.582 49.816 368.582 49.562 L 368.582 49.348 C 369.543 49.457 370.133 49.516 370.348 49.516 C 370.562 49.516 370.668 49.371 370.668 49.086 L 370.668 43.555 L 366.973 43.555 C 366.688 43.555 366.348 43.609 365.949 43.723 L 365.473 43.234 Z M 362.949 40.824 L 363.055 40.66 C 363.699 40.984 364.164 41.281 364.449 41.547 C 364.734 41.812 364.871 42.082 364.852 42.352 C 364.836 42.621 364.766 42.809 364.641 42.918 C 364.512 43.023 364.414 43.078 364.34 43.078 C 364.199 43.078 364.055 42.863 363.914 42.434 C 363.738 41.863 363.414 41.324 362.949 40.824 Z M 364.77 49.836 C 365.168 50.195 365.625 50.496 366.141 50.746 C 366.656 50.996 367.344 51.148 368.203 51.199 C 369.059 51.254 369.828 51.277 370.512 51.277 C 371.012 51.277 371.574 51.262 372.199 51.227 C 372.824 51.191 373.562 51.137 374.422 51.066 L 374.422 51.277 C 373.707 51.43 373.348 51.719 373.348 52.148 C 371.742 52.109 370.414 52.062 369.355 52.012 C 368.301 51.957 367.469 51.832 366.863 51.637 C 366.254 51.438 365.734 51.141 365.309 50.742 C 364.879 50.352 364.582 50.156 364.426 50.156 C 364.266 50.156 364.008 50.355 363.648 50.746 C 363.293 51.141 362.969 51.59 362.684 52.09 L 361.934 51.336 C 362.578 50.871 363.273 50.367 364.02 49.836 L 364.02 45.438 L 363.59 45.438 C 363.129 45.438 362.699 45.488 362.305 45.594 L 361.828 45.117 L 363.863 45.117 L 364.449 44.52 L 365.199 45.273 L 364.77 45.652 Z M 381.5 45.438 C 381.539 44.613 381.559 43.797 381.559 42.996 C 381.559 42.191 381.539 41.398 381.5 40.609 L 382.309 41.086 L 386.215 41.086 L 386.703 40.609 L 387.453 41.359 L 386.969 41.684 C 386.969 43.328 386.988 44.398 387.027 44.902 L 386.273 45.164 L 386.273 44.52 L 382.25 44.52 L 382.25 45.117 Z M 382.25 41.41 L 382.25 44.199 L 386.273 44.199 L 386.273 41.41 Z M 380.805 46.129 L 386.383 46.129 L 386.969 45.543 L 387.824 46.453 L 384.559 46.453 L 384.559 48.762 L 386.109 48.762 L 386.703 48.168 L 387.562 49.086 L 384.559 49.086 L 384.559 51.551 L 386.645 51.551 L 387.289 50.91 L 388.207 51.875 L 381.773 51.875 C 381.305 51.875 380.875 51.93 380.484 52.039 L 379.996 51.551 L 383.859 51.551 L 383.859 49.086 L 382.895 49.086 C 382.43 49.086 382.004 49.137 381.605 49.242 L 381.129 48.762 L 383.859 48.762 L 383.859 46.453 L 382.57 46.453 C 382.109 46.453 381.68 46.508 381.285 46.617 Z M 378.125 41.625 C 377.656 41.695 376.906 41.785 375.875 41.898 L 375.875 41.684 C 376.551 41.57 377.344 41.375 378.258 41.086 C 379.172 40.801 379.77 40.535 380.055 40.289 L 380.746 41.254 C 380.43 41.254 379.785 41.34 378.816 41.516 L 378.816 44.199 L 379.629 44.199 L 380.211 43.613 L 381.07 44.52 L 378.816 44.52 L 378.816 45.543 C 379.57 45.863 380.062 46.141 380.293 46.375 C 380.527 46.609 380.641 46.832 380.641 47.047 C 380.641 47.223 380.598 47.391 380.508 47.555 C 380.422 47.715 380.344 47.797 380.27 47.797 C 380.16 47.797 380.031 47.617 379.891 47.262 C 379.676 46.723 379.316 46.223 378.816 45.758 C 378.816 49.477 378.836 51.66 378.875 52.305 L 378.066 52.684 C 378.105 51.316 378.125 49.242 378.125 46.453 C 377.48 48.098 376.641 49.477 375.602 50.586 L 375.492 50.422 C 376.207 49.316 376.762 48.246 377.156 47.207 C 377.551 46.172 377.816 45.273 377.961 44.52 L 377.211 44.52 C 376.746 44.52 376.32 44.574 375.922 44.688 L 375.445 44.199 L 378.125 44.199 Z M 378.125 41.625 "/>
<path transform="matrix(2.7765415,0,0,2.7777777,-280.55,-70.18619)" stroke-width="2.496667" stroke-linecap="butt" stroke-linejoin="round" fill="none" stroke="#ff0000" d="M 153.568 77.32 L 161.083 77.32 L 168.598 74.973 L 213.689 74.973 L 221.204 74.922 L 258.779 74.922 L 266.294 74.871 L 379.02 74.871 L 386.535 74.816 L 521.803 74.816 "/>
<path transform="matrix(2.7765415,0,0,2.7777777,-280.55,-70.18619)" stroke-width="1.8725" stroke-linecap="butt" stroke-dasharray="7.49,7.49" stroke-linejoin="bevel" fill="none" stroke="#0000ff" d="M 153.568 263.766 L 161.083 185.262 L 168.598 97.523 L 176.114 85.543 L 183.629 77.379 L 191.144 80.547 L 198.659 82.039 L 206.174 75.605 L 213.689 77.371 L 221.204 77.539 L 228.719 77.07 L 236.234 77.504 L 243.749 80.637 L 251.264 74.98 L 258.779 82.785 L 266.294 74.941 L 273.809 76.941 L 281.324 75.68 L 288.839 78.57 L 296.355 77.383 L 303.87 75 L 311.385 77.414 L 318.9 76.008 L 326.415 75.836 L 333.93 75.363 L 341.445 76.312 L 348.96 75.105 L 356.475 76.766 L 363.99 79.023 L 371.505 78.746 L 379.02 76.133 L 386.535 80.531 L 394.05 78.758 L 401.565 75.293 L 409.08 77.785 L 416.596 75.863 L 424.111 76.922 L 431.626 76.301 L 439.137 74.988 L 446.652 75.699 L 454.167 76.145 L 461.682 77.688 L 469.197 75.75 L 476.712 75.375 L 484.227 76.672 L 491.742 77.328 L 499.257 75.016 L 506.772 75.156 L 514.287 76.762 L 521.803 77.844 "/>
<path transform="matrix(2.7765415,0,0,2.7777777,-280.55,-70.18619)" stroke-width="1.248333" stroke-linecap="butt" stroke-dasharray="1.248333,1.248333" stroke-linejoin="bevel" fill="none" stroke="#00ff00" d="M 153.568 308.965 L 168.598 308.965 L 176.114 183.262 L 183.629 86.816 L 191.144 166.926 L 198.659 169.07 L 206.174 91.617 L 213.689 118.625 L 221.204 120.871 L 228.719 126.234 L 236.234 149.105 L 243.749 190.055 L 251.264 75.738 L 258.779 248.004 L 266.294 75.023 L 273.809 105.965 L 281.324 97.945 L 288.839 176.27 L 296.355 109.383 L 303.87 77.32 L 311.385 113.109 L 318.9 103.051 L 326.415 93.301 L 333.93 83.703 L 341.445 112.293 L 348.96 79.262 L 356.475 105.195 L 363.99 128.734 L 371.505 167.18 L 379.02 111.73 L 386.535 237.484 L 394.05 159.215 L 401.565 87.02 L 409.08 136.648 L 416.596 101.316 L 424.111 109.742 L 431.626 103.715 L 439.137 79.77 L 446.652 100.805 L 454.167 98.715 L 461.682 141.395 L 469.197 96.57 L 476.712 89.727 L 484.227 98.203 L 491.742 99.582 L 499.257 78.496 L 506.772 84.059 L 514.287 126.844 L 521.803 114.031 "/>
<path transform="matrix(2.7777777,0,0,2.7777777,-280.55,-70.18619)" d="M 439.84 192.242 L 509.719 192.242 L 509.719 239.68001 L 439.84 239.68001 Z " fill="#ffffff"/>
<path transform="matrix(2.7777777,0,0,2.7777777,-280.55,-70.18619)" d="M 486.352 201.129 L 486.352 202.055 L 488.418 202.055 L 488.418 201.129 Z M 486.352 202.316 L 486.352 203.32 L 488.418 203.32 L 488.418 202.316 Z M 486.352 203.586 L 486.352 204.988 L 488.418 204.637 L 488.418 203.586 Z M 490.297 202.18 C 490.414 202.59 490.574 203 490.781 203.41 C 490.984 203.82 491.203 204.156 491.438 204.422 C 491.672 204.074 491.887 203.707 492.078 203.328 C 492.27 202.945 492.438 202.562 492.578 202.18 Z M 484.207 200.863 L 492.578 200.863 L 493.281 200.16 L 494.246 201.129 L 488.98 201.129 L 488.98 204.512 L 490.258 204.25 L 490.297 204.422 L 488.98 204.812 L 488.98 206.707 L 488.418 207.059 L 488.418 204.988 C 486.777 205.398 485.785 205.672 485.434 205.805 C 485.082 205.938 484.879 206.062 484.82 206.18 L 484.293 205.34 C 484.703 205.281 485.184 205.211 485.734 205.125 L 485.734 201.129 L 485.121 201.129 L 484.555 201.215 Z M 489.156 201.918 L 492.539 201.918 L 492.891 201.477 L 493.594 202.094 L 493.191 202.316 C 492.758 203.312 492.289 204.145 491.789 204.812 C 492.258 205.258 492.668 205.566 493.02 205.742 C 493.367 205.914 493.793 206.02 494.297 206.051 L 494.297 206.227 C 493.828 206.285 493.535 206.461 493.418 206.754 C 493.094 206.605 492.77 206.406 492.449 206.156 C 492.125 205.906 491.789 205.59 491.438 205.215 C 490.855 205.797 490.082 206.371 489.117 206.93 L 488.98 206.793 C 489.832 206.207 490.551 205.566 491.137 204.863 C 490.871 204.453 490.656 204.035 490.496 203.609 C 490.34 203.184 490.199 202.707 490.082 202.18 L 489.508 202.27 Z M 486.965 197.488 L 486.965 198.457 L 491.703 198.457 L 491.703 197.488 Z M 486.965 198.719 L 486.965 199.684 L 491.703 199.684 L 491.703 198.719 Z M 486.312 196.875 L 486.965 197.227 L 491.613 197.227 L 491.926 196.738 L 492.668 197.266 L 492.316 197.578 C 492.316 199.008 492.332 199.871 492.363 200.16 L 491.703 200.473 L 491.703 199.945 L 486.965 199.945 L 486.965 200.297 L 486.312 200.512 C 486.336 199.961 486.352 199.355 486.352 198.695 C 486.352 198.035 486.336 197.43 486.312 196.875 Z M 497.102 206.969 C 497.129 206.117 497.141 205.414 497.141 204.863 L 497.141 200.16 C 496.473 201.129 495.887 201.863 495.387 202.355 L 495.262 202.23 C 495.754 201.555 496.258 200.695 496.77 199.66 C 497.285 198.621 497.672 197.648 497.93 196.738 L 498.855 197.312 C 498.531 197.516 498.035 198.305 497.367 199.684 L 498.105 200.074 L 497.754 200.426 L 497.754 205.078 C 497.754 205.371 497.773 205.883 497.805 206.617 Z M 502.367 197.352 C 503.477 197.738 504.07 198.016 504.141 198.191 C 504.211 198.367 504.246 198.512 504.246 198.629 C 504.246 198.773 504.211 198.918 504.141 199.066 C 504.07 199.211 504.004 199.285 503.945 199.285 C 503.828 199.285 503.711 199.152 503.594 198.895 C 503.359 198.484 502.922 198.016 502.277 197.488 Z M 500.613 200.074 L 500.613 198.582 C 500.613 197.969 500.594 197.387 500.562 196.828 L 501.617 197.312 L 501.227 197.664 L 501.227 200.074 L 503.684 200.074 L 504.246 199.508 L 505.086 200.336 L 502.453 200.336 L 502.453 205.391 C 502.453 205.797 502.66 206.004 503.066 206.004 L 504.383 206.004 C 504.586 205.945 504.715 205.711 504.773 205.301 C 504.832 204.891 504.863 204.453 504.863 203.984 L 505.086 203.984 C 505.086 204.422 505.105 204.836 505.148 205.234 C 505.191 205.629 505.348 205.855 505.613 205.914 C 505.379 206.324 505.059 206.531 504.648 206.531 L 502.895 206.531 C 502.219 206.562 501.879 206.281 501.879 205.691 L 501.879 200.336 L 501.227 200.336 C 501.195 201.391 501.074 202.32 500.871 203.125 C 500.664 203.934 500.328 204.652 499.859 205.281 C 499.395 205.914 498.75 206.504 497.93 207.059 L 497.805 206.93 C 498.414 206.43 498.926 205.863 499.336 205.234 C 499.746 204.602 500.051 203.879 500.258 203.059 C 500.461 202.238 500.578 201.332 500.613 200.336 L 499.648 200.336 C 499.262 200.336 498.914 200.383 498.594 200.473 L 498.195 200.074 Z M 500.613 200.074 "/>
<path transform="matrix(2.7765415,0,0,2.7777777,-280.55,-70.18619)" stroke-width="2.496667" stroke-linecap="butt" stroke-linejoin="round" fill="none" stroke="#ff0000" d="M 443.768 201.234 L 481.05 201.234 "/>
<path transform="matrix(2.7777777,0,0,2.7777777,-280.55,-70.18619)" d="M 489.559 219.328 C 489.559 219.969 489.57 220.613 489.598 221.258 L 488.855 221.57 C 488.883 220.66 488.895 219.836 488.895 219.102 L 488.895 216.555 L 485.473 216.555 C 485.098 216.555 484.746 216.602 484.418 216.691 L 484.031 216.293 L 488.895 216.293 L 488.895 212.605 L 486.438 212.605 C 486.062 212.605 485.711 212.652 485.387 212.742 L 484.996 212.344 L 492.141 212.344 L 492.754 211.73 L 493.633 212.605 L 489.559 212.605 L 489.559 216.293 L 492.754 216.293 L 493.418 215.641 L 494.332 216.555 L 489.559 216.555 Z M 491.965 213.047 L 492.891 213.746 C 492.656 213.746 492.336 214.012 491.926 214.539 C 491.484 215.062 491.016 215.562 490.523 216.031 L 490.387 215.941 C 491.145 214.922 491.672 213.957 491.965 213.047 Z M 485.91 213.27 C 486.762 213.883 487.262 214.297 487.406 214.52 C 487.555 214.738 487.629 214.938 487.629 215.113 C 487.629 215.199 487.605 215.309 487.559 215.441 C 487.512 215.574 487.41 215.699 487.25 215.816 C 487.094 215.934 486.938 215.727 486.789 215.199 C 486.645 214.699 486.312 214.086 485.785 213.359 Z M 502.016 212.082 L 501.578 212.344 C 501.367 212.812 501.164 213.281 500.961 213.746 L 504.336 213.746 L 504.734 213.309 L 505.348 213.883 L 505 214.188 C 504.941 217.555 504.844 219.512 504.711 220.055 C 504.578 220.598 504.379 220.977 504.117 221.195 C 503.852 221.41 503.531 221.594 503.156 221.746 C 503.039 221.305 502.496 220.953 501.527 220.691 L 501.527 220.469 C 502.438 220.645 503.074 220.707 503.438 220.664 C 503.801 220.617 504.035 220.172 504.141 219.32 C 504.246 218.473 504.324 216.703 504.383 214.012 L 500.875 214.012 C 500.348 214.98 499.805 215.758 499.246 216.344 L 499.07 216.254 C 499.629 215.434 500.07 214.586 500.391 213.707 C 500.715 212.832 500.902 212.102 500.961 211.516 Z M 501 215.062 C 501.676 215.449 502.109 215.762 502.297 216.012 C 502.488 216.258 502.582 216.457 502.582 216.605 C 502.582 216.75 502.516 216.906 502.387 217.082 C 502.258 217.258 502.16 217.348 502.102 217.348 C 502.012 217.348 501.926 217.199 501.84 216.906 C 501.723 216.473 501.402 215.902 500.875 215.199 Z M 503.594 217.57 C 503.066 217.949 502.41 218.387 501.617 218.887 C 500.797 219.414 500.242 219.867 499.949 220.242 L 499.297 219.414 C 499.707 219.297 500.254 219.078 500.938 218.754 C 501.625 218.434 502.48 217.98 503.508 217.395 Z M 497.844 218.711 L 499.734 218.008 L 499.82 218.223 C 498.711 218.75 497.832 219.184 497.191 219.52 C 496.547 219.859 496.148 220.129 496 220.332 L 495.348 219.453 C 496.133 219.25 496.762 219.062 497.23 218.887 L 497.23 215.113 L 496.176 215.113 L 495.785 215.199 L 495.434 214.852 L 497.23 214.852 C 497.23 213.211 497.215 212.113 497.191 211.555 L 498.242 212.082 L 497.844 212.43 L 497.844 214.852 L 498.332 214.852 L 498.809 214.363 L 499.512 215.113 L 497.844 215.113 Z M 497.844 218.711 "/>
<path transform="matrix(2.7765415,0,0,2.7777777,-280.55,-70.18619)" stroke-width="1.8725" stroke-linecap="butt" stroke-dasharray="7.49,7.49" stroke-linejoin="bevel" fill="none" stroke="#0000ff" d="M 443.768 215.961 L 481.05 215.961 "/>
<path transform="matrix(2.7777777,0,0,2.7777777,-280.55,-70.18619)" d="M 486.352 230.582 L 486.352 231.508 L 488.418 231.508 L 488.418 230.582 Z M 486.352 231.77 L 486.352 232.777 L 488.418 232.777 L 488.418 231.77 Z M 486.352 233.039 L 486.352 234.445 L 488.418 234.094 L 488.418 233.039 Z M 490.297 231.633 C 490.414 232.043 490.574 232.453 490.781 232.863 C 490.984 233.273 491.203 233.609 491.438 233.879 C 491.672 233.527 491.887 233.16 492.078 232.781 C 492.27 232.398 492.438 232.02 492.578 231.633 Z M 484.207 230.316 L 492.578 230.316 L 493.281 229.617 L 494.246 230.582 L 488.98 230.582 L 488.98 233.965 L 490.258 233.703 L 490.297 233.879 L 488.98 234.27 L 488.98 236.16 L 488.418 236.512 L 488.418 234.445 C 486.777 234.852 485.785 235.125 485.434 235.258 C 485.082 235.391 484.879 235.516 484.82 235.633 L 484.293 234.793 C 484.703 234.734 485.184 234.664 485.734 234.578 L 485.734 230.582 L 485.121 230.582 L 484.555 230.668 Z M 489.156 231.371 L 492.539 231.371 L 492.891 230.934 L 493.594 231.547 L 493.191 231.77 C 492.758 232.766 492.289 233.598 491.789 234.27 C 492.258 234.711 492.668 235.02 493.02 235.195 C 493.367 235.371 493.793 235.473 494.297 235.508 L 494.297 235.684 C 493.828 235.742 493.535 235.918 493.418 236.207 C 493.094 236.059 492.77 235.859 492.449 235.609 C 492.125 235.359 491.789 235.043 491.438 234.668 C 490.855 235.254 490.082 235.824 489.117 236.383 L 488.98 236.246 C 489.832 235.664 490.551 235.02 491.137 234.316 C 490.871 233.906 490.656 233.488 490.496 233.062 C 490.34 232.637 490.199 232.16 490.082 231.633 L 489.508 231.723 Z M 486.965 226.945 L 486.965 227.91 L 491.703 227.91 L 491.703 226.945 Z M 486.965 228.172 L 486.965 229.137 L 491.703 229.137 L 491.703 228.172 Z M 486.312 226.328 L 486.965 226.68 L 491.613 226.68 L 491.926 226.191 L 492.668 226.719 L 492.316 227.031 C 492.316 228.461 492.332 229.324 492.363 229.617 L 491.703 229.93 L 491.703 229.402 L 486.965 229.402 L 486.965 229.754 L 486.312 229.969 C 486.336 229.414 486.352 228.809 486.352 228.148 C 486.352 227.488 486.336 226.883 486.312 226.328 Z M 497.668 226.418 L 497.754 226.281 C 498.516 226.574 498.953 226.809 499.07 226.984 C 499.188 227.16 499.246 227.305 499.246 227.422 C 499.246 227.57 499.211 227.711 499.141 227.84 C 499.066 227.973 499.004 228.035 498.945 228.035 C 498.855 228.035 498.766 227.918 498.68 227.684 C 498.508 227.309 498.168 226.887 497.668 226.418 Z M 500.477 228.477 C 500.359 229.035 500.258 229.473 500.172 229.793 L 503.02 229.793 L 503.594 229.227 L 504.422 230.055 L 500.125 230.055 C 500.008 230.465 499.848 230.902 499.648 231.371 L 503.77 231.371 L 504.473 230.668 L 505.438 231.633 L 499.559 231.633 C 498.648 233.332 497.289 234.695 495.473 235.723 L 495.434 235.547 C 496.98 234.461 498.152 233.156 498.945 231.633 L 496.527 231.633 L 495.914 231.723 L 495.562 231.371 L 499.031 231.371 C 499.207 230.938 499.367 230.496 499.512 230.055 L 497.578 230.055 L 497.016 230.145 L 496.664 229.793 L 499.559 229.793 C 499.676 229.324 499.762 228.883 499.82 228.477 L 497.055 228.477 L 496.441 228.562 L 496.09 228.211 L 501.441 228.211 C 501.965 227.219 502.258 226.531 502.316 226.152 L 503.281 226.719 C 502.992 226.754 502.465 227.25 501.703 228.211 L 503.723 228.211 L 504.383 227.559 L 505.301 228.477 Z M 498.633 233.125 L 503.02 233.125 L 503.547 232.602 L 504.336 233.391 L 501.617 233.391 L 501.617 235.684 L 503.984 235.684 L 504.598 235.059 L 505.477 235.945 L 498.457 235.945 C 498.082 235.945 497.73 235.988 497.406 236.07 L 497.016 235.684 L 501 235.684 L 501 233.391 L 499.473 233.391 L 498.984 233.477 Z M 498.633 233.125 "/>
<path transform="matrix(2.7765415,0,0,2.7777777,-280.55,-70.18619)" stroke-width="1.248333" stroke-linecap="butt" stroke-dasharray="1.248333,1.248333" stroke-linejoin="bevel" fill="none" stroke="#00ff00" d="M 443.768 230.688 L 481.05 230.688 "/>
<path transform="matrix(2.7765415,0,0,2.7777777,-280.55,-70.18619)" stroke-width=".624167" stroke-linecap="butt" stroke-miterlimit="10" stroke-linejoin="miter" fill="none" stroke="#262626" d="M 440.036 192.242 L 509.946 192.242 L 509.946 239.68001 L 440.036 239.68001 Z "/>
</g>
</g>
</svg>
